<?xml version="1.0" encoding="UTF-8" standalone="no"?>
<svg
   xmlns:dc="http://purl.org/dc/elements/1.1/"
   xmlns:cc="http://creativecommons.org/ns#"
   xmlns:rdf="http://www.w3.org/1999/02/22-rdf-syntax-ns#"
   xmlns:svg="http://www.w3.org/2000/svg"
   xmlns="http://www.w3.org/2000/svg"
   id="svg2"
   version="1.1"
   width="4.0202808cm"
   viewBox="0 0 142.4469 198.63155"
   height="5.6053348cm">
  <metadata
     id="metadata18">
    <rdf:RDF>
      <cc:Work
         rdf:about="">
        <dc:format>image/svg+xml</dc:format>
        <dc:type
           rdf:resource="http://purl.org/dc/dcmitype/StillImage" />
        <dc:title></dc:title>
      </cc:Work>
    </rdf:RDF>
  </metadata>
  <defs
     id="defs16" />
  <g
     id="g4"
     transform="translate(-259.75138,-48.508563)">
    <g
       id="g6"
       transform="translate(78,-13)">
      <path
         style="fill:#3771c8"
         id="path8"
         d="m 252.5,91.98 26.56,32.27 -95.31,95.72 z" />
      <path
         style="fill:#2c5aa0"
         id="path10"
         d="m 207.5,63.56 36.73,43.9 -60.44,112.5 z" />
      <path
         style="fill:#5f8dd3"
         id="path12"
         transform="translate(-78,13)"
         d="m 380,88.11 -84.65,85.07 c 2.793,-2.122 5.919,-3.82 9.287,-4.953 9.721,-3.27 20.37,-1.934 28.79,3.611 1.146,0.7543 2.084,1.572 2.084,1.816 0,0.8202 -3.15,5.658 -3.684,5.658 -0.2872,0 -1.038,-0.3837 -1.67,-0.8516 -1.866,-1.382 -5.436,-3.047 -8.219,-3.832 -3.653,-1.031 -9.499,-1.02 -13.25,0.0234 -8.88,2.473 -15.7,9.228 -18.26,18.07 -1.052,3.646 -1.052,9.737 0,13.38 2.551,8.843 9.35,15.58 18.26,18.08 2.086,0.5868 3.498,0.7441 6.648,0.7441 4.688,0 7.888,-0.746 11.66,-2.721 2.41,-1.261 31.51,-22.31 31.51,-22.8 0,-0.1483 -3.02,-2.468 -6.709,-5.156 -3.689,-2.688 -6.77,-5.053 -6.848,-5.254 -0.1722,-0.4435 2.891,-5.653 3.457,-5.879 0.2211,-0.0884 4.048,2.501 8.502,5.754 4.454,3.253 8.323,5.914 8.598,5.914 0.2749,-1.1e-4 7.701,-5.261 16.5,-11.69 4.785,-3.496 9.278,-6.716 12.69,-9.111 l -14.8,-85.89 z m -91.25,91.7 -27.01,27.14 67.25,38.19 53.72,-29.06 c -0.9106,-0.5372 -4.641,-3.224 -8.584,-6.105 -4.464,-3.261 -8.34,-5.93 -8.615,-5.93 -0.275,3.3e-4 -7.701,5.26 -16.5,11.69 -8.801,6.429 -17.02,12.22 -18.26,12.88 -2.934,1.537 -6.386,2.688 -9.869,3.291 -22.43,3.885 -42.15,-15.85 -38.2,-38.24 0.8898,-5.045 3.024,-9.782 6.07,-13.84 z m 107.3,2.295 c -9.489,6.721 -23.58,16.98 -23.58,17.32 0,0.1509 3.018,2.472 6.707,5.156 3.65,2.656 10.02,7.771 9.957,7.994 l 11.11,-6.008 -4.189,-24.46 z" />
    </g>
    <path
       id="path4265"
       d="m 379.85193,88.33201 20.35462,118.15992 -71.1639,38.64804 -67.2991,-38.2358 23.75566,-156.395701 36.74139,43.904166 8.29644,-15.510745 26.48679,32.36129 z"
       style="fill:none;fill-rule:evenodd;stroke:#ffffff;stroke-width:4.00034884;stroke-linecap:round;stroke-linejoin:round;stroke-miterlimit:4;stroke-dasharray:none;stroke-opacity:1" />
  </g>
</svg>
